%
M48
M72
T01C0.03543
T02C0.04000
T03C0.05512
T04C0.11024
%
T01
X528622Y119173
X528622Y111299
X528622Y103425
X588043Y201622
X548043Y201622
X737283Y197913
X737283Y205787
X737283Y213661
X784528Y115236
X792402Y115236
X800276Y115236
X331772Y190039
X331772Y197913
X331772Y205787
X284528Y205787
X284528Y197913
X284528Y190039
T02
X501063Y182165
X501063Y192165
X501063Y202165
X501063Y212165
X418386Y209724
X418386Y199724
X621772Y201445
X670354Y209724
T03
X582634Y117858
X606256Y109984
X629878Y117858
X629878Y137543
X606256Y145417
X582634Y137543
T04
X284528Y119173
X611299Y182165
M30
